<svg width="400" height="400" viewBox="0 0 400 400" fill="none" xmlns="http://www.w3.org/2000/svg">
  <!-- Sky / Ground -->
  <rect x="60" y="330" width="280" height="8" rx="4" fill="#BDC3C7"/>
  <!-- Main Building Body -->
  <rect x="100" y="120" width="200" height="210" rx="4" fill="#FFFFFF" stroke="#2C3E50" stroke-width="3"/>
  <!-- Roof -->
  <polygon points="90,122 200,60 310,122" fill="#3498DB" stroke="#2C3E50" stroke-width="2"/>
  <!-- Hotel Sign on façade -->
  <rect x="142" y="132" width="116" height="28" rx="6" fill="#27AE60"/>
  <rect x="150" y="138" width="60" height="10" rx="5" fill="#FFFFFF" opacity="0.7"/>
  <rect x="218" y="138" width="32" height="10" rx="5" fill="#FFFFFF" opacity="0.4"/>
  <!-- Windows Row 1 -->
  <rect x="118" y="178" width="36" height="32" rx="4" fill="#AED6F1" stroke="#2C3E50" stroke-width="1.5"/>
  <rect x="182" y="178" width="36" height="32" rx="4" fill="#AED6F1" stroke="#2C3E50" stroke-width="1.5"/>
  <rect x="246" y="178" width="36" height="32" rx="4" fill="#AED6F1" stroke="#2C3E50" stroke-width="1.5"/>
  <!-- Window cross lines row 1 -->
  <line x1="136" y1="178" x2="136" y2="210" stroke="#2C3E50" stroke-width="1"/>
  <line x1="118" y1="194" x2="154" y2="194" stroke="#2C3E50" stroke-width="1"/>
  <line x1="200" y1="178" x2="200" y2="210" stroke="#2C3E50" stroke-width="1"/>
  <line x1="182" y1="194" x2="218" y2="194" stroke="#2C3E50" stroke-width="1"/>
  <line x1="264" y1="178" x2="264" y2="210" stroke="#2C3E50" stroke-width="1"/>
  <line x1="246" y1="194" x2="282" y2="194" stroke="#2C3E50" stroke-width="1"/>
  <!-- Windows Row 2 -->
  <rect x="118" y="228" width="36" height="32" rx="4" fill="#AED6F1" stroke="#2C3E50" stroke-width="1.5"/>
  <rect x="182" y="228" width="36" height="32" rx="4" fill="#F9E79F" stroke="#2C3E50" stroke-width="1.5"/>
  <rect x="246" y="228" width="36" height="32" rx="4" fill="#AED6F1" stroke="#2C3E50" stroke-width="1.5"/>
  <!-- Window cross lines row 2 -->
  <line x1="136" y1="228" x2="136" y2="260" stroke="#2C3E50" stroke-width="1"/>
  <line x1="118" y1="244" x2="154" y2="244" stroke="#2C3E50" stroke-width="1"/>
  <line x1="200" y1="228" x2="200" y2="260" stroke="#2C3E50" stroke-width="1"/>
  <line x1="182" y1="244" x2="218" y2="244" stroke="#2C3E50" stroke-width="1"/>
  <line x1="264" y1="228" x2="264" y2="260" stroke="#2C3E50" stroke-width="1"/>
  <line x1="246" y1="244" x2="282" y2="244" stroke="#2C3E50" stroke-width="1"/>
  <!-- Door -->
  <rect x="174" y="280" width="52" height="50" rx="4" fill="#E8D5B7" stroke="#2C3E50" stroke-width="2"/>
  <circle cx="219" cy="307" r="4" fill="#2C3E50"/>
  <!-- Awning -->
  <path d="M164,280 L236,280 L226,268 L174,268 Z" fill="#E74C3C" stroke="#2C3E50" stroke-width="1.5"/>
  <!-- Chimney -->
  <rect x="240" y="78" width="18" height="42" rx="3" fill="#BDC3C7" stroke="#2C3E50" stroke-width="1.5"/>
  <!-- Stars / Rating -->
  <polygon points="200,30 203,39 212,39 205,45 207,54 200,49 193,54 195,45 188,39 197,39" fill="#F1C40F"/>
  <polygon points="222,38 224,45 231,45 226,49 228,56 222,52 216,56 218,49 213,45 220,45" fill="#F1C40F" opacity="0.7"/>
  <polygon points="178,38 180,45 187,45 182,49 184,56 178,52 172,56 174,49 169,45 176,45" fill="#F1C40F" opacity="0.7"/>
</svg>
