<svg width="400" height="400" viewBox="0 0 400 400" fill="none" xmlns="http://www.w3.org/2000/svg">
  <!-- Main Document -->
  <path d="M90 50 L90 350 L310 350 L310 110 L250 50 Z" fill="#FFFFFF" stroke="#2C3E50" stroke-width="3"/>
  
  <!-- Folded Corner -->
  <path d="M250 50 L250 110 L310 110 Z" fill="#BDC3C7" stroke="#2C3E50" stroke-width="3"/>
  
  <!-- Document Header -->
  <rect x="110" y="130" width="100" height="12" rx="3" fill="#3498DB"/>
  <rect x="110" y="150" width="140" height="8" rx="2" fill="#95A5A6"/>
  
  <!-- Table Structure -->
  <!-- Table Header -->
  <rect x="110" y="180" width="180" height="25" rx="3" fill="#3498DB" opacity="0.3"/>
  <line x1="160" y1="180" x2="160" y2="205" stroke="#3498DB" stroke-width="2"/>
  <line x1="230" y1="180" x2="230" y2="205" stroke="#3498DB" stroke-width="2"/>
  
  <!-- Table Rows -->
  <line x1="110" y1="205" x2="290" y2="205" stroke="#BDC3C7" stroke-width="1"/>
  <line x1="110" y1="230" x2="290" y2="230" stroke="#BDC3C7" stroke-width="1"/>
  <line x1="110" y1="255" x2="290" y2="255" stroke="#BDC3C7" stroke-width="1"/>
  <line x1="110" y1="280" x2="290" y2="280" stroke="#BDC3C7" stroke-width="1"/>
  
  <!-- Vertical Lines -->
  <line x1="160" y1="205" x2="160" y2="280" stroke="#BDC3C7" stroke-width="1"/>
  <line x1="230" y1="205" x2="230" y2="280" stroke="#BDC3C7" stroke-width="1"/>
  
  <!-- Total Box -->
  <rect x="190" y="295" width="100" height="30" rx="4" fill="#27AE60"/>
  <rect x="205" y="305" width="70" height="10" rx="2" fill="#FFFFFF"/>
  
  <!-- Company Stamp -->
  <circle cx="140" cy="310" r="25" fill="none" stroke="#E74C3C" stroke-width="3"/>
  <rect x="125" y="305" width="30" height="10" rx="2" fill="#E74C3C"/>
</svg>
