<svg width="400" height="400" viewBox="0 0 400 400" fill="none" xmlns="http://www.w3.org/2000/svg">
  <!-- Left Arm Sleeve -->
  <path d="M50 220 Q80 200 130 210 L150 240 Q120 250 80 260 Z" fill="#3498DB" stroke="#2C3E50" stroke-width="2"/>
  <!-- Right Arm Sleeve -->
  <path d="M350 220 Q320 200 270 210 L250 240 Q280 250 320 260 Z" fill="#2ECC71" stroke="#2C3E50" stroke-width="2"/>
  <!-- Left Hand -->
  <path d="M130 205 Q145 195 160 200 L175 215 Q165 225 150 235 Z" fill="#F5CBA7" stroke="#D4A574" stroke-width="2"/>
  <!-- Right Hand -->
  <path d="M270 205 Q255 195 240 200 L225 215 Q235 225 250 235 Z" fill="#F5CBA7" stroke="#D4A574" stroke-width="2"/>
  <!-- Handshake Overlap -->
  <ellipse cx="200" cy="218" rx="35" ry="22" fill="#F5CBA7" stroke="#D4A574" stroke-width="2"/>
  <!-- Cuff Details Left -->
  <rect x="120" y="230" width="35" height="8" rx="3" fill="#FFFFFF" opacity="0.5"/>
  <!-- Cuff Details Right -->
  <rect x="245" y="230" width="35" height="8" rx="3" fill="#FFFFFF" opacity="0.5"/>
  <!-- Trust Stars -->
  <polygon points="200,100 205,115 220,115 208,125 212,140 200,132 188,140 192,125 180,115 195,115" fill="#F1C40F"/>
  <polygon points="150,130 153,140 163,140 155,147 158,157 150,151 142,157 145,147 137,140 147,140" fill="#F1C40F" opacity="0.6"/>
  <polygon points="250,130 253,140 263,140 255,147 258,157 250,151 242,157 245,147 237,140 247,140" fill="#F1C40F" opacity="0.6"/>
  <!-- Base Line -->
  <rect x="60" y="280" width="280" height="4" rx="2" fill="#BDC3C7"/>
</svg>
