<svg width="400" height="400" viewBox="0 0 400 400" fill="none" xmlns="http://www.w3.org/2000/svg">
  <!-- Document -->
  <rect x="100" y="60" width="200" height="260" rx="6" fill="#FFFFFF" stroke="#2C3E50" stroke-width="2.5"/>
  <!-- Document Lines -->
  <rect x="125" y="90" width="100" height="10" rx="3" fill="#8E44AD"/>
  <rect x="125" y="110" width="150" height="6" rx="3" fill="#ECF0F1"/>
  <rect x="125" y="125" width="130" height="6" rx="3" fill="#ECF0F1"/>
  <rect x="125" y="140" width="150" height="6" rx="3" fill="#ECF0F1"/>
  <rect x="125" y="155" width="120" height="6" rx="3" fill="#ECF0F1"/>
  <!-- Divider -->
  <line x1="115" y1="180" x2="285" y2="180" stroke="#BDC3C7" stroke-width="1.5"/>
  <!-- Signature Area -->
  <path d="M140 220 Q155 200 170 215 Q185 230 200 210 Q215 195 230 215 Q240 225 255 205" stroke="#2C3E50" stroke-width="2.5" fill="none" stroke-linecap="round"/>
  <!-- Signature Line -->
  <line x1="130" y1="240" x2="270" y2="240" stroke="#95A5A6" stroke-width="1" stroke-dasharray="4,3"/>
  <!-- Stamp Circle -->
  <circle cx="240" cy="270" r="30" fill="none" stroke="#E74C3C" stroke-width="3" opacity="0.8"/>
  <circle cx="240" cy="270" r="22" fill="none" stroke="#E74C3C" stroke-width="1.5" opacity="0.6"/>
  <!-- Stamp Text Placeholder -->
  <rect x="225" y="265" width="30" height="8" rx="2" fill="#E74C3C" opacity="0.6"/>
  <!-- Digital Checkmark -->
  <circle cx="140" cy="275" r="16" fill="#27AE60"/>
  <path d="M130 275 L137 282 L150 268" stroke="#FFFFFF" stroke-width="3" stroke-linecap="round" stroke-linejoin="round" fill="none"/>
  <!-- Sparkle Effects -->
  <circle cx="310" cy="100" r="4" fill="#F1C40F"/>
  <circle cx="85" cy="150" r="3" fill="#F1C40F" opacity="0.7"/>
  <circle cx="320" cy="200" r="3" fill="#F1C40F" opacity="0.5"/>
</svg>
